<?xml version="1.0" encoding="UTF-8" standalone="no"?>
<svg width="24px" height="23px" viewBox="0 0 24 23" version="1.1" xmlns="http://www.w3.org/2000/svg" xmlns:xlink="http://www.w3.org/1999/xlink">
    <!-- Generator: Sketch 42 (36781) - http://www.bohemiancoding.com/sketch -->
    <title>cart</title>
    <desc>Created with Sketch.</desc>
    <defs></defs>
    <g id="About-b8ta-Page" stroke="none" stroke-width="1" fill="none" fill-rule="evenodd">
        <g id="SmartSpace_desktop" transform="translate(-1294.000000, -47.000000)" fill="#FFFFFF">
            <g id="Header" transform="translate(0.000000, 1.000000)">
                <path d="M1300.88577,65.8045333 C1300.09902,65.8045333 1299.50427,66.4132667 1299.50427,67.2167333 C1299.50427,68.0225 1300.09902,68.6734 1300.88577,68.6734 C1301.67252,68.6734 1302.31227,68.0217333 1302.31227,67.2167333 C1302.31227,66.4132667 1301.67327,65.8045333 1300.88577,65.8045333 L1300.88577,65.8045333 Z M1316.35902,50.1538 L1299.51777,50.1745 L1299.40227,48.1896 C1299.40227,48.1896 1299.42777,46 1296.69477,46 C1293.96102,46 1294.00002,48.7362333 1294.00002,48.7362333 L1296.92202,48.7331667 L1299.60852,64.4115 L1314.79677,64.4115 L1314.79677,61.5786667 L1300.85352,61.5786667 L1300.87902,60.1212333 L1314.52077,60.1028333 C1314.52077,60.1028333 1316.17077,60.1595667 1316.17077,58.5771667 L1318.00002,51.7308333 C1318.00002,51.7308333 1317.80877,50.1538 1316.35902,50.1538 L1316.35902,50.1538 Z M1314.23727,55.9950333 C1314.23727,55.9950333 1313.66202,57.2991333 1312.83102,57.2991333 L1302.95727,57.2968333 C1302.51477,57.2968333 1301.63652,56.4427667 1301.63652,55.9912 L1301.33727,53.8384 C1301.33727,53.3883667 1301.69502,53.0219 1302.13677,53.0219 L1313.95902,52.9805 C1314.40002,52.9805 1314.75777,53.3469667 1314.75777,53.7985333 L1314.23727,55.9950333 L1314.23727,55.9950333 Z M1310.59227,65.8267667 C1309.81152,65.8267667 1309.22202,66.4293667 1309.22202,67.2274667 C1309.22202,68.0263333 1309.81152,68.6734 1310.59227,68.6734 C1311.37377,68.6734 1312.00677,68.0263333 1312.00677,67.2274667 C1312.00677,66.4286 1311.37377,65.8267667 1310.59227,65.8267667 L1310.59227,65.8267667 Z" id="cart"></path>
            </g>
        </g>
    </g>
</svg>