<?xml version="1.0" encoding="UTF-8" standalone="no"?>
<svg width="172px" height="40px" viewBox="0 0 172 40" version="1.1" xmlns="http://www.w3.org/2000/svg" xmlns:xlink="http://www.w3.org/1999/xlink">
    <!-- Generator: Sketch 42 (36781) - http://www.bohemiancoding.com/sketch -->
    <title>logo</title>
    <desc>Created with Sketch.</desc>
    <defs></defs>
    <g id="About-b8ta-Page" stroke="none" stroke-width="1" fill="none" fill-rule="evenodd">
        <g id="SmartSpace_desktop" transform="translate(-47.000000, -32.000000)">
            <g id="logo" transform="translate(47.000000, 32.000000)">
                <path d="M12.0996094,28.7773438 C12.0996094,28.0026003 11.8261746,27.4078797 11.2792969,26.9931641 C10.7324191,26.5784484 9.74805398,26.1409528 8.32617188,25.6806641 C6.90428977,25.2203753 5.77864998,24.7669293 4.94921875,24.3203125 C2.68879078,23.0989522 1.55859375,21.4537864 1.55859375,19.3847656 C1.55859375,18.3092394 1.86165062,17.3499391 2.46777344,16.5068359 C3.07389626,15.6637328 3.94433026,15.0052107 5.07910156,14.53125 C6.21387286,14.0572893 7.48762314,13.8203125 8.90039063,13.8203125 C10.3222727,13.8203125 11.5891871,14.0777969 12.7011719,14.5927734 C13.8131566,15.10775 14.6767547,15.8346307 15.2919922,16.7734375 C15.9072296,17.7122443 16.2148438,18.7786399 16.2148438,19.9726562 L12.1132813,19.9726562 C12.1132813,19.0611934 11.8261747,18.3525416 11.2519531,17.8466797 C10.6777315,17.3408178 9.87109895,17.0878906 8.83203125,17.0878906 C7.82942207,17.0878906 7.05013299,17.2998026 6.49414062,17.7236328 C5.93814826,18.1474631 5.66015625,18.7057257 5.66015625,19.3984375 C5.66015625,20.0455762 5.98599935,20.5878884 6.63769531,21.0253906 C7.28939128,21.4628928 8.24869158,21.873045 9.515625,22.2558594 C11.84897,22.9576858 13.5488228,23.8281198 14.6152344,24.8671875 C15.681646,25.9062552 16.2148438,27.2005131 16.2148438,28.75 C16.2148438,30.4726649 15.5631576,31.8238883 14.2597656,32.8037109 C12.9563737,33.7835335 11.2018339,34.2734375 8.99609375,34.2734375 C7.46483609,34.2734375 6.07031879,33.9931669 4.8125,33.4326172 C3.55468121,32.8720675 2.59538091,32.1041715 1.93457031,31.1289062 C1.27375972,30.153641 0.943359375,29.0234439 0.943359375,27.7382812 L5.05859375,27.7382812 C5.05859375,29.9349068 6.37108063,31.0332031 8.99609375,31.0332031 C9.97135904,31.0332031 10.7324191,30.8349629 11.2792969,30.4384766 C11.8261746,30.0419902 12.0996094,29.4882848 12.0996094,28.7773438 Z M22.4355469,19.2070312 L22.5585938,20.8613281 C23.6067761,19.5761654 25.0240796,18.9335938 26.8105469,18.9335938 C28.7155043,18.9335938 30.0234339,19.6855394 30.734375,21.1894531 C31.7734427,19.6855394 33.2545477,18.9335938 35.1777344,18.9335938 C36.7819091,18.9335938 37.9759075,19.4007115 38.7597656,20.3349609 C39.5436237,21.2692104 39.9355469,22.6751208 39.9355469,24.5527344 L39.9355469,34 L35.9707031,34 L35.9707031,24.5664062 C35.9707031,23.7278604 35.8066423,23.1149108 35.4785156,22.7275391 C35.150389,22.3401673 34.5716187,22.1464844 33.7421875,22.1464844 C32.5572857,22.1464844 31.7369814,22.7115829 31.28125,23.8417969 L31.2949219,34 L27.34375,34 L27.34375,24.5800781 C27.34375,23.723303 27.1751319,23.1035175 26.8378906,22.7207031 C26.5006494,22.3378887 25.9264363,22.1464844 25.1152344,22.1464844 C23.994135,22.1464844 23.1829452,22.6113235 22.6816406,23.5410156 L22.6816406,34 L18.7304688,34 L18.7304688,19.2070312 L22.4355469,19.2070312 Z M51.5429688,34 C51.3606762,33.6445295 51.228516,33.2024766 51.1464844,32.6738281 C50.1894483,33.7402397 48.9453202,34.2734375 47.4140625,34.2734375 C45.9648365,34.2734375 44.7640022,33.8541709 43.8115234,33.015625 C42.8590447,32.1770791 42.3828125,31.119798 42.3828125,29.84375 C42.3828125,28.2760338 42.9638614,27.0729209 44.1259766,26.234375 C45.2880917,25.3958291 46.9674369,24.9720053 49.1640625,24.9628906 L50.9824219,24.9628906 L50.9824219,24.1152344 C50.9824219,23.4316372 50.8069679,22.8847677 50.4560547,22.4746094 C50.1051415,22.0644511 49.5514361,21.859375 48.7949219,21.859375 C48.129554,21.859375 47.6077493,22.0188786 47.2294922,22.3378906 C46.8512351,22.6569026 46.6621094,23.0943983 46.6621094,23.6503906 L42.7109375,23.6503906 C42.7109375,22.7936155 42.9752578,22.0006547 43.5039062,21.2714844 C44.0325547,20.5423141 44.7799431,19.9703797 45.7460938,19.5556641 C46.7122444,19.1409484 47.796869,18.9335938 49,18.9335938 C50.8229258,18.9335938 52.2698514,19.391597 53.3408203,20.3076172 C54.4117892,21.2236374 54.9472656,22.5110594 54.9472656,24.1699219 L54.9472656,30.5820312 C54.9563803,31.9856841 55.1523418,33.0475224 55.5351562,33.7675781 L55.5351562,34 L51.5429688,34 Z M48.2753906,31.2519531 C48.8587269,31.2519531 49.3964819,31.1220716 49.8886719,30.8623047 C50.3808618,30.6025378 50.7454415,30.2539084 50.9824219,29.8164062 L50.9824219,27.2734375 L49.5058594,27.2734375 C47.5279849,27.2734375 46.4752611,27.9570244 46.3476562,29.3242188 L46.3339844,29.5566406 C46.3339844,30.0488306 46.5071597,30.4544255 46.8535156,30.7734375 C47.1998715,31.0924495 47.6738251,31.2519531 48.2753906,31.2519531 Z M66.2949219,22.9121094 C65.7571588,22.8391923 65.2832052,22.8027344 64.8730469,22.8027344 C63.3782477,22.8027344 62.3984398,23.3085887 61.9335937,24.3203125 L61.9335937,34 L57.9824219,34 L57.9824219,19.2070312 L61.7148437,19.2070312 L61.8242187,20.9707031 C62.6171915,19.6126234 63.7154878,18.9335938 65.1191406,18.9335938 C65.5566428,18.9335938 65.966795,18.9928379 66.3496094,19.1113281 L66.2949219,22.9121094 Z M73.609375,15.5703125 L73.609375,19.2070312 L76.1386719,19.2070312 L76.1386719,22.1054688 L73.609375,22.1054688 L73.609375,29.4882812 C73.609375,30.035159 73.7141917,30.4270821 73.9238281,30.6640625 C74.1334646,30.9010429 74.5345022,31.0195312 75.1269531,31.0195312 C75.5644553,31.0195312 75.9518212,30.9876305 76.2890625,30.9238281 L76.2890625,33.9179688 C75.514319,34.1549491 74.716801,34.2734375 73.8964844,34.2734375 C71.1256372,34.2734375 69.7128909,32.8743629 69.6582031,30.0761719 L69.6582031,22.1054688 L67.4980469,22.1054688 L67.4980469,19.2070312 L69.6582031,19.2070312 L69.6582031,15.5703125 L73.609375,15.5703125 Z M88.921875,28.7773438 C88.921875,28.0026003 88.6484402,27.4078797 88.1015625,26.9931641 C87.5546848,26.5784484 86.5703196,26.1409528 85.1484375,25.6806641 C83.7265554,25.2203753 82.6009156,24.7669293 81.7714844,24.3203125 C79.5110564,23.0989522 78.3808594,21.4537864 78.3808594,19.3847656 C78.3808594,18.3092394 78.6839162,17.3499391 79.2900391,16.5068359 C79.8961619,15.6637328 80.7665959,15.0052107 81.9013672,14.53125 C83.0361385,14.0572893 84.3098888,13.8203125 85.7226562,13.8203125 C87.1445384,13.8203125 88.4114528,14.0777969 89.5234375,14.5927734 C90.6354222,15.10775 91.4990204,15.8346307 92.1142578,16.7734375 C92.7294953,17.7122443 93.0371094,18.7786399 93.0371094,19.9726562 L88.9355469,19.9726562 C88.9355469,19.0611934 88.6484404,18.3525416 88.0742188,17.8466797 C87.4999971,17.3408178 86.6933646,17.0878906 85.6542969,17.0878906 C84.6516877,17.0878906 83.8723986,17.2998026 83.3164062,17.7236328 C82.7604139,18.1474631 82.4824219,18.7057257 82.4824219,19.3984375 C82.4824219,20.0455762 82.808265,20.5878884 83.4599609,21.0253906 C84.1116569,21.4628928 85.0709572,21.873045 86.3378906,22.2558594 C88.6712356,22.9576858 90.3710884,23.8281198 91.4375,24.8671875 C92.5039116,25.9062552 93.0371094,27.2005131 93.0371094,28.75 C93.0371094,30.4726649 92.3854232,31.8238883 91.0820312,32.8037109 C89.7786393,33.7835335 88.0240996,34.2734375 85.8183594,34.2734375 C84.2871017,34.2734375 82.8925844,33.9931669 81.6347656,33.4326172 C80.3769468,32.8720675 79.4176465,32.1041715 78.7568359,31.1289062 C78.0960253,30.153641 77.765625,29.0234439 77.765625,27.7382812 L81.8808594,27.7382812 C81.8808594,29.9349068 83.1933463,31.0332031 85.8183594,31.0332031 C86.7936247,31.0332031 87.5546848,30.8349629 88.1015625,30.4384766 C88.6484402,30.0419902 88.921875,29.4882848 88.921875,28.7773438 Z M108.869141,26.7402344 C108.869141,29.0188916 108.351893,30.8440687 107.317383,32.2158203 C106.282872,33.587572 104.886077,34.2734375 103.126953,34.2734375 C101.632154,34.2734375 100.424484,33.7539114 99.5039062,32.7148438 L99.5039062,39.6875 L95.5527344,39.6875 L95.5527344,19.2070312 L99.2167969,19.2070312 L99.3535156,20.65625 C100.310552,19.5078068 101.559237,18.9335938 103.099609,18.9335938 C104.922535,18.9335938 106.339839,19.6080662 107.351562,20.9570312 C108.363286,22.3059963 108.869141,24.1653527 108.869141,26.5351562 L108.869141,26.7402344 Z M104.917969,26.453125 C104.917969,25.076816 104.674156,24.0149777 104.186523,23.2675781 C103.698891,22.5201786 102.990239,22.1464844 102.060547,22.1464844 C100.820957,22.1464844 99.9687523,22.620438 99.5039062,23.5683594 L99.5039062,29.625 C99.9869816,30.6002653 100.848301,31.0878906 102.087891,31.0878906 C103.974619,31.0878906 104.917969,29.5429842 104.917969,26.453125 Z M119.888672,34 C119.706379,33.6445295 119.574219,33.2024766 119.492188,32.6738281 C118.535151,33.7402397 117.291023,34.2734375 115.759766,34.2734375 C114.31054,34.2734375 113.109705,33.8541709 112.157227,33.015625 C111.204748,32.1770791 110.728516,31.119798 110.728516,29.84375 C110.728516,28.2760338 111.309565,27.0729209 112.47168,26.234375 C113.633795,25.3958291 115.31314,24.9720053 117.509766,24.9628906 L119.328125,24.9628906 L119.328125,24.1152344 C119.328125,23.4316372 119.152671,22.8847677 118.801758,22.4746094 C118.450845,22.0644511 117.897139,21.859375 117.140625,21.859375 C116.475257,21.859375 115.953452,22.0188786 115.575195,22.3378906 C115.196938,22.6569026 115.007812,23.0943983 115.007812,23.6503906 L111.056641,23.6503906 C111.056641,22.7936155 111.320961,22.0006547 111.849609,21.2714844 C112.378258,20.5423141 113.125646,19.9703797 114.091797,19.5556641 C115.057948,19.1409484 116.142572,18.9335938 117.345703,18.9335938 C119.168629,18.9335938 120.615555,19.391597 121.686523,20.3076172 C122.757492,21.2236374 123.292969,22.5110594 123.292969,24.1699219 L123.292969,30.5820312 C123.302083,31.9856841 123.498045,33.0475224 123.880859,33.7675781 L123.880859,34 L119.888672,34 Z M116.621094,31.2519531 C117.20443,31.2519531 117.742185,31.1220716 118.234375,30.8623047 C118.726565,30.6025378 119.091145,30.2539084 119.328125,29.8164062 L119.328125,27.2734375 L117.851562,27.2734375 C115.873688,27.2734375 114.820964,27.9570244 114.693359,29.3242188 L114.679687,29.5566406 C114.679687,30.0488306 114.852863,30.4544255 115.199219,30.7734375 C115.545575,31.0924495 116.019528,31.2519531 116.621094,31.2519531 Z M132.480469,31.0878906 C133.209639,31.0878906 133.802081,30.8873718 134.257812,30.4863281 C134.713544,30.0852845 134.950521,29.5520867 134.96875,28.8867188 L138.673828,28.8867188 C138.664713,29.8893279 138.391279,30.807613 137.853516,31.6416016 C137.315753,32.4755901 136.579757,33.1227191 135.645508,33.5830078 C134.711258,34.0432966 133.679042,34.2734375 132.548828,34.2734375 C130.434234,34.2734375 128.766282,33.6012437 127.544922,32.2568359 C126.323562,30.9124282 125.712891,29.0553504 125.712891,26.6855469 L125.712891,26.4257812 C125.712891,24.147124 126.319004,22.3287828 127.53125,20.9707031 C128.743496,19.6126234 130.40689,18.9335938 132.521484,18.9335938 C134.371754,18.9335938 135.855138,19.4599557 136.97168,20.5126953 C138.088222,21.565435 138.655599,22.9667881 138.673828,24.7167969 L134.96875,24.7167969 C134.950521,23.951168 134.713544,23.329104 134.257812,22.8505859 C133.802081,22.3720679 133.200525,22.1328125 132.453125,22.1328125 C131.532547,22.1328125 130.837567,22.4677701 130.368164,23.1376953 C129.898761,23.8076205 129.664062,24.8945237 129.664062,26.3984375 L129.664062,26.8085938 C129.664062,28.3307368 129.896482,29.4244758 130.361328,30.0898438 C130.826174,30.7552117 131.532547,31.0878906 132.480469,31.0878906 Z M147.738281,34.2734375 C145.569,34.2734375 143.803067,33.6080796 142.44043,32.2773438 C141.077793,30.9466079 140.396484,29.1738392 140.396484,26.9589844 L140.396484,26.5761719 C140.396484,25.0904874 140.683591,23.7620501 141.257812,22.5908203 C141.832034,21.4195905 142.645503,20.5172558 143.698242,19.8837891 C144.750982,19.2503224 145.951816,18.9335938 147.300781,18.9335938 C149.324229,18.9335938 150.916986,19.5716082 152.079102,20.8476562 C153.241217,22.1237043 153.822266,23.932931 153.822266,26.2753906 L153.822266,27.8886719 L144.402344,27.8886719 C144.529949,28.8548225 144.915036,29.6295544 145.557617,30.2128906 C146.200199,30.7962269 147.013667,31.0878906 147.998047,31.0878906 C149.52019,31.0878906 150.709631,30.5364638 151.566406,29.4335938 L153.507812,31.6074219 C152.915362,32.4459677 152.113286,33.0999325 151.101562,33.5693359 C150.089839,34.0387393 148.968756,34.2734375 147.738281,34.2734375 Z M147.287109,22.1328125 C146.503251,22.1328125 145.867515,22.3971328 145.379883,22.9257812 C144.89225,23.4544297 144.580079,24.2109326 144.443359,25.1953125 L149.939453,25.1953125 L149.939453,24.8808594 C149.921224,24.005855 149.684247,23.329104 149.228516,22.8505859 C148.772784,22.3720679 148.125655,22.1328125 147.287109,22.1328125 Z" id="SmartSpace" fill="#FFFFFF"></path>
                <g id="Group-10" transform="translate(157.000000, 0.000000)">
                    <path d="M10.3073636,5.62220494 C9.88024315,5.62220494 9.44871938,5.45760442 9.1228749,5.13059807 C8.46898429,4.47878003 8.47118594,3.42314205 9.12507655,2.77132401 L11.4169962,0.488863531 C12.0708868,-0.16295451 13.1298814,-0.160759837 13.783772,0.491058204 C14.4376626,1.14287625 14.4354609,2.19851422 13.7815703,2.85033226 L11.4896507,5.13279274 C11.1638062,5.4597991 10.7344841,5.62220494 10.3073636,5.62220494" id="Fill-31" fill="#E3263E"></path>
                    <path d="M1.67490668,14.2292756 C1.24778622,14.2292756 0.818464094,14.0668698 0.492619613,13.7398634 C-0.161271002,13.0880454 -0.163472654,12.0324074 0.490417961,11.3805894 L2.78013594,9.09593422 C3.43402655,8.44411618 4.49302112,8.4419215 5.14691173,9.09373954 C5.80080235,9.74555759 5.803004,10.8011956 5.14911338,11.4530136 L2.85939541,13.7376688 C2.53355093,14.0646751 2.10202715,14.2292756 1.67490668,14.2292756" id="Fill-33" fill="#E3263E"></path>
                    <path d="M3.96462466,5.62220494 C3.53750419,5.62220494 3.10818207,5.4597991 2.78013594,5.13279274 L0.490417961,2.85033226 C-0.163472654,2.19631954 -0.163472654,1.14287625 0.490417961,0.488863531 C1.14871188,-0.16295451 2.20550479,-0.16295451 2.85939541,0.488863531 L5.14911338,2.77132401 C5.803004,3.42533673 5.803004,4.47878003 5.14911338,5.13279274 C4.8232689,5.4597991 4.39174513,5.62220494 3.96462466,5.62220494" id="Fill-35" fill="#00A0DD"></path>
                    <path d="M12.5992833,14.2292756 C12.1721628,14.2292756 11.7428407,14.0668698 11.4147945,13.7398634 L9.1228749,11.4552083 C8.46898429,10.8011956 8.46898429,9.74775226 9.1228749,9.09373954 C9.77676552,8.4419215 10.8335584,8.4419215 11.4918523,9.09373954 L13.783772,11.3783947 C14.4376626,12.0324074 14.4376626,13.0858507 13.783772,13.7398634 C13.4579275,14.0668698 13.0264037,14.2292756 12.5992833,14.2292756" id="Fill-37" fill="#00A0DD"></path>
                </g>
            </g>
        </g>
    </g>
</svg>