<?xml version="1.0" encoding="UTF-8" standalone="no"?>
<svg width="22px" height="22px" viewBox="0 0 22 22" version="1.1" xmlns="http://www.w3.org/2000/svg" xmlns:xlink="http://www.w3.org/1999/xlink">
    <!-- Generator: Sketch 42 (36781) - http://www.bohemiancoding.com/sketch -->
    <title>facebook</title>
    <desc>Created with Sketch.</desc>
    <defs></defs>
    <g id="About-b8ta-Page" stroke="none" stroke-width="1" fill="none" fill-rule="evenodd">
        <g id="SmartSpace_desktop" transform="translate(-1128.000000, -2538.000000)" fill="#FFFFFF">
            <g id="Footer" transform="translate(0.000000, 2484.000000)">
                <g id="facebook" transform="translate(1128.000000, 54.000000)">
                    <path d="M18.3335625,0 L3.667125,0 C1.6506875,0 0,1.6506875 0,3.667125 L0,18.3335625 C0,20.3520625 1.6506875,22 3.667125,22 L11,22 L11,13.7286875 L8.25,13.7286875 L8.25,10.3125 L11,10.3125 L11,8.5944375 C11,6.12975 12.849375,4.125 15.125,4.125 L17.875,4.125 L17.875,7.5301875 L15.125,7.5301875 C14.8005,7.5301875 14.4375,7.9715625 14.4375,8.562125 L14.4375,10.3125 L17.875,10.3125 L17.875,13.7286875 L14.4375,13.7286875 L14.4375,22 L18.3335625,22 C20.3506875,22 22,20.3520625 22,18.3335625 L22,3.667125 C22,1.6506875 20.3506875,2.44249065e-15 18.3335625,2.44249065e-15 L18.3335625,0 Z" id="Shape"></path>
                </g>
            </g>
        </g>
    </g>
</svg>