<?xml version="1.0" encoding="UTF-8" standalone="no"?>
<svg width="61px" height="24px" viewBox="0 0 61 24" version="1.1" xmlns="http://www.w3.org/2000/svg" xmlns:xlink="http://www.w3.org/1999/xlink">
    <!-- Generator: Sketch 42 (36781) - http://www.bohemiancoding.com/sketch -->
    <title>pinterest</title>
    <desc>Created with Sketch.</desc>
    <defs></defs>
    <g id="About-b8ta-Page" stroke="none" stroke-width="1" fill="none" fill-rule="evenodd">
        <g id="SmartSpace_desktop" transform="translate(-1202.000000, -2537.000000)" fill="#FFFFFF">
            <g id="Footer" transform="translate(0.000000, 2484.000000)">
                <g id="pinterest" transform="translate(1202.000000, 53.000000)">
                    <path d="M12.000125,0 C5.37230596,0 0,5.37230596 0,12.000125 C0,17.0836779 3.16278294,21.4262232 7.62682944,23.1744914 C7.52182835,22.2249815 7.42732736,20.7684663 7.66807987,19.7319555 C7.88633215,18.7951958 9.07509453,13.7671434 9.07509453,13.7671434 C9.07509453,13.7671434 8.71584079,13.0486359 8.71584079,11.9858748 C8.71584079,10.3171075 9.68335086,9.07134449 10.8871134,9.07134449 C11.9108741,9.07134449 12.4051292,9.8401025 12.4051292,10.7618621 C12.4051292,11.7916228 11.7496224,13.3306389 11.4113689,14.7571537 C11.1286159,15.9519162 12.0106251,16.9261763 13.1881374,16.9261763 C15.3211596,16.9261763 16.9606767,14.6769029 16.9606767,11.4308691 C16.9606767,8.55758914 14.8959052,6.54906822 11.9483745,6.54906822 C8.5343389,6.54906822 6.52956801,9.1103449 6.52956801,11.7563725 C6.52956801,12.7876332 6.92707215,13.8938947 7.42282732,14.494651 C7.52107834,14.6131522 7.53532849,14.7174033 7.50607819,14.8389046 C7.41532724,15.2184085 7.21282513,16.033667 7.17307472,16.2001687 C7.12057417,16.419921 6.9990729,16.4664215 6.77182054,16.3606704 C5.27330493,15.6631632 4.33579516,13.4716403 4.33579516,11.712122 C4.33579516,7.92683257 7.08607381,4.45054636 12.2648778,4.45054636 C16.4274211,4.45054636 19.6629548,7.41682726 19.6629548,11.3813686 C19.6629548,15.5169116 17.0551777,18.8454463 13.43639,18.8454463 C12.2206273,18.8454463 11.0776154,18.2139397 10.6861113,17.4676819 C10.6861113,17.4676819 10.084605,19.7589558 9.93835352,20.3199617 C9.6676007,21.3624725 8.93559308,22.6689861 8.44658798,23.4662444 C9.56934968,23.813498 10.7626121,24.001 12.000125,24.001 C18.627194,24.001 24.00025,18.628694 24.00025,12.000875 C24.00025,5.37305597 18.627944,0.000750007812 12.000125,0.000750007812 L12.000125,0 Z" id="Shape"></path>
                    <g id="instagram" transform="translate(40.000000, 1.000000)">
                        <path d="M18.5283197,8.86094268 L16.7049914,8.86094268 C16.8380858,9.37692951 16.9161067,9.91520801 16.9161067,10.4725 C16.9161067,14.0319567 14.0313011,16.917418 10.4718444,16.917418 C6.91238762,16.917418 4.02758201,14.0326124 4.02758201,10.4725 C4.02758201,9.91520801 4.10625853,9.37627387 4.23935297,8.86094268 L2.4160247,8.86094268 L2.4160247,17.722541 C2.4160247,18.1670633 2.7766254,18.527664 3.22245899,18.527664 L17.7218854,18.527664 C18.167719,18.527664 18.5283197,18.1670633 18.5283197,17.722541 L18.5283197,8.86094268 L18.5283197,8.86094268 Z M18.5283197,3.22245899 C18.5283197,2.77793667 18.167719,2.41733597 17.7218854,2.41733597 L15.3058607,2.41733597 C14.8606827,2.41733597 14.500082,2.77793667 14.500082,3.22245899 L14.500082,5.63979497 C14.500082,6.08431729 14.8606827,6.44557362 15.3058607,6.44557362 L17.7218854,6.44557362 C18.167719,6.44557362 18.5283197,6.08497292 18.5283197,5.63979497 L18.5283197,3.22245899 L18.5283197,3.22245899 Z M10.4718444,6.44491799 C8.24726585,6.44491799 6.44360671,8.24792149 6.44360671,10.4725 C6.44360671,12.6970785 8.24661022,14.5007377 10.4718444,14.5007377 C12.6964229,14.5007377 14.500082,12.6970785 14.500082,10.4725 C14.500082,8.24792149 12.6964229,6.44491799 10.4718444,6.44491799 L10.4718444,6.44491799 Z M18.5283197,20.945 L2.4160247,20.945 C1.0818021,20.945 0,19.8625423 0,18.5270084 L0,2.4160247 C0,1.0818021 1.0818021,0 2.4160247,0 L18.5283197,0 C19.8625423,0 20.9443444,1.0818021 20.9443444,2.4160247 L20.9443444,18.5270084 C20.9443444,19.8625423 19.8625423,20.945 18.5283197,20.945 L18.5283197,20.945 Z" id="Shape"></path>
                    </g>
                </g>
            </g>
        </g>
    </g>
</svg>