<?xml version="1.0" encoding="UTF-8" standalone="no"?>
<svg width="24px" height="20px" viewBox="0 0 24 20" version="1.1" xmlns="http://www.w3.org/2000/svg" xmlns:xlink="http://www.w3.org/1999/xlink">
    <!-- Generator: Sketch 42 (36781) - http://www.bohemiancoding.com/sketch -->
    <title>twitter</title>
    <desc>Created with Sketch.</desc>
    <defs></defs>
    <g id="About-b8ta-Page" stroke="none" stroke-width="1" fill="none" fill-rule="evenodd">
        <g id="SmartSpace_desktop" transform="translate(-1162.000000, -2539.000000)" fill="#FFFFFF">
            <g id="Footer" transform="translate(0.000000, 2484.000000)">
                <g id="twitter" transform="translate(1162.000000, 55.000000)">
                    <path d="M23.5388579,2.26407314 C22.6730963,2.64803876 21.7418694,2.90769368 20.7650373,3.02464872 C21.7617297,2.4266333 22.5274542,1.48069501 22.8886173,0.353071835 C21.9551836,0.90621771 20.9217129,1.30857249 19.8220413,1.52482899 C18.9408328,0.58624636 17.6859567,0 16.2972075,0 C13.630044,0 11.4682145,2.16182942 11.4682145,4.82899291 C11.4682145,5.20780957 11.5108774,5.5763283 11.5932608,5.92940013 C7.58001096,5.72785496 4.02134109,3.80508459 1.63957733,0.883415154 C1.22398236,1.59691449 0.985658873,2.42589773 0.985658873,3.31151959 C0.985658873,4.98713967 1.83818024,6.46489242 3.1342481,7.33138954 C2.34277874,7.30638029 1.59838562,7.08938822 0.946673858,6.72748959 C0.945938292,6.74734988 0.945938292,6.76794574 0.945938292,6.7885416 C0.945938292,9.12837807 2.61052488,11.0798355 4.81943055,11.523382 C4.41413351,11.633717 3.98750504,11.6925623 3.54690081,11.6925623 C3.23575626,11.6925623 2.9334385,11.6624041 2.6384764,11.6057654 C3.25267428,13.5241224 5.03642262,14.9202273 7.14970466,14.9592123 C5.49688713,16.2545446 3.41449887,17.0261537 1.15189686,17.0261537 C0.762046711,17.0261537 0.37808109,17.0033511 0,16.9584816 C2.13682017,18.3288416 4.67525955,19.1284022 7.40273948,19.1284022 C16.2854384,19.1284022 21.1423828,11.7697967 21.1423828,5.38802332 C21.1423828,5.17838692 21.1379694,4.97022165 21.1284071,4.76352751 C22.0721387,4.08239309 22.890824,3.23207842 23.5381223,2.26407314 L23.5388579,2.26407314 Z" id="Shape"></path>
                </g>
            </g>
        </g>
    </g>
</svg>