<?xml version="1.0" encoding="UTF-8" standalone="no"?>
<svg width="59px" height="22px" viewBox="0 0 59 22" version="1.1" xmlns="http://www.w3.org/2000/svg" xmlns:xlink="http://www.w3.org/1999/xlink">
    <!-- Generator: Sketch 42 (36781) - http://www.bohemiancoding.com/sketch -->
    <title>vine</title>
    <desc>Created with Sketch.</desc>
    <defs></defs>
    <g id="About-b8ta-Page" stroke="none" stroke-width="1" fill="none" fill-rule="evenodd">
        <g id="SmartSpace_desktop" transform="translate(-1275.000000, -2537.000000)" fill="#FFFFFF">
            <g id="Footer" transform="translate(0.000000, 2484.000000)">
                <g id="vine" transform="translate(1275.000000, 53.000000)">
                    <path d="M19,11.064057 C18.4420989,11.1930123 17.9004868,11.2486667 17.4152078,11.2486667 C14.6820352,11.2486667 12.5773498,9.3428438 12.5773498,6.02258545 C12.5773498,4.39571316 13.2051583,3.54935949 14.0963069,3.54935949 C14.9426606,3.54935949 15.5066701,4.30883805 15.5066701,5.84883522 C15.5066701,6.72573093 15.2725145,7.68339334 15.0987643,8.25283258 C15.0987643,8.25283258 15.9396883,9.7208863 18.2445937,9.27090034 C18.7353024,8.1856401 19,6.77867045 19,5.54545103 C19,2.22655011 17.3052565,0.297651042 14.2055795,0.297651042 C11.0149551,0.297651042 9.14985499,2.74644338 9.14985499,5.98118403 C9.14985499,9.18198909 10.6470933,11.9287359 13.116247,13.1809593 C12.0778179,15.2564601 10.7563659,17.0862672 9.3792596,18.4633736 C6.8809213,15.4424272 4.62216828,11.4122362 3.69301176,3.54868078 L0.011,3.54868078 C1.71185188,16.6451045 6.78793777,20.8164675 8.1304298,21.6166688 C8.88990836,22.0727632 9.54215044,22.0510444 10.2378301,21.6601064 C11.3271626,21.0424786 14.597875,17.7690514 16.4134292,13.937723 C17.1742651,13.9350081 18.0878113,13.8494905 19,13.6431621 L19,11.0633783 L19,11.064057 Z" id="Shape"></path>
                    <g id="youtube" transform="translate(35.000000, 3.000000)">
                        <path d="M19.5,0 L4.5,0 C2.025,0 0,2.025 0,4.5 L0,13.5 C0,15.975 2.025,18 4.5,18 L19.5,18 C21.975,18 24,15.975 24,13.5 L24,4.5 C24,2.025 21.975,0 19.5,0 L19.5,0 Z M9,15 L9,3 L16.5,9 L9,15 L9,15 Z" id="Shape"></path>
                    </g>
                </g>
            </g>
        </g>
    </g>
</svg>