<?xml version="1.0" encoding="UTF-8" standalone="no"?>
<svg width="24px" height="24px" viewBox="0 0 24 24" version="1.1" xmlns="http://www.w3.org/2000/svg" xmlns:xlink="http://www.w3.org/1999/xlink">
    <!-- Generator: Sketch 42 (36781) - http://www.bohemiancoding.com/sketch -->
    <title>Clock</title>
    <desc>Created with Sketch.</desc>
    <defs></defs>
    <g id="About-b8ta-Page" stroke="none" stroke-width="1" fill="none" fill-rule="evenodd">
        <g id="SmartSpace_desktop" transform="translate(-567.000000, -2280.000000)" fill="#00AAE7">
            <g id="Group-8" transform="translate(567.000000, 2203.000000)">
                <g id="Clock" transform="translate(0.000000, 77.281690)">
                    <path d="M11.8254621,2.06561927 C6.30877241,2.06561927 1.81994483,6.44060836 1.81994483,11.8173925 C1.81994483,17.1949833 6.30877241,21.5699724 11.8254621,21.5699724 C17.3421517,21.5699724 21.8309793,17.1949833 21.8309793,11.8173925 C21.8309793,6.44060836 17.3421517,2.06561927 11.8254621,2.06561927 M11.8254621,23.343682 C5.30491034,23.343682 8.27586205e-05,18.173387 8.27586205e-05,11.8173925 C8.27586205e-05,5.46220464 5.30491034,0.291909636 11.8254621,0.291909636 C18.3460138,0.291909636 23.6508414,5.46220464 23.6508414,11.8173925 C23.6508414,18.173387 18.3460138,23.343682 11.8254621,23.343682" id="Fill-1"></path>
                    <path d="M16.0650207,9.52754066 C15.8680552,9.07665222 15.3334345,8.86693667 14.8716414,9.05890706 L10.7386759,10.7729284 C10.3877793,10.9189227 10.1817103,11.2544676 10.188331,11.6053378 C10.188331,11.6101774 10.1850207,11.6142104 10.1850207,11.61905 L10.1850207,17.1369889 C10.1850207,17.626594 10.5930207,18.0234404 11.0953655,18.0234404 C11.5977103,18.0234404 12.0048828,17.626594 12.0048828,17.1369889 L12.0048828,12.1756028 L15.5841931,10.6906554 C16.0468138,10.4994916 16.2619862,9.9784291 16.0650207,9.52754066" id="Fill-4"></path>
                </g>
            </g>
        </g>
    </g>
</svg>