<?xml version="1.0" encoding="UTF-8" standalone="no"?>
<svg width="23px" height="30px" viewBox="0 0 23 30" version="1.1" xmlns="http://www.w3.org/2000/svg" xmlns:xlink="http://www.w3.org/1999/xlink">
    <!-- Generator: Sketch 42 (36781) - http://www.bohemiancoding.com/sketch -->
    <title>Marker</title>
    <desc>Created with Sketch.</desc>
    <defs></defs>
    <g id="About-b8ta-Page" stroke="none" stroke-width="1" fill="none" fill-rule="evenodd">
        <g id="SmartSpace_desktop" transform="translate(-567.000000, -2203.000000)" fill="#00AAE7">
            <g id="Group-8" transform="translate(567.000000, 2203.000000)">
                <path d="M11.365017,13.8728653 L11.365017,12.765688 C10.4050726,12.763478 9.63008198,12.0098903 9.6278126,11.0750879 C9.62894729,10.1303408 10.4062073,9.37675305 11.365017,9.37675305 C12.3340389,9.37785802 13.1067601,10.1314458 13.1090295,11.0750879 C13.1078948,12.0087853 12.3340389,12.764583 11.365017,12.765688 L11.365017,13.8728653 L11.365017,14.9800426 C12.4702012,14.9800426 13.4823412,14.5424755 14.2062709,13.8364013 C14.9313353,13.1336421 15.3829404,12.1491162 15.3818057,11.0750879 C15.3829404,9.99774471 14.93247,9.01211382 14.2074056,8.30714464 C13.4834759,7.6010705 12.4702012,7.16239845 11.365017,7.16239845 C10.2609674,7.16239845 9.25109683,7.6010705 8.52830179,8.30714464 C7.80437207,9.01211382 7.3539017,9.99774471 7.35503638,11.0750879 C7.35503638,13.2319842 9.15010976,14.9789376 11.365017,14.9800426 L11.365017,13.8728653 Z M11.365017,1.1071773 L11.365017,0 C5.08793359,0.00110496736 1.20719908e-06,4.95577863 1.20719908e-06,11.0684581 C-0.00113347888,13.4872316 0.797685522,15.7314204 2.15477007,17.5524066 L2.16157819,17.5612463 L2.26029588,17.6916325 L3.17371818,17.0330719 L2.25121839,17.6794778 L10.4425172,28.7556707 C10.6547035,29.0440672 10.9996481,29.2153371 11.3638823,29.2153371 C11.7292512,29.2153371 12.0730611,29.0440672 12.2875168,28.7556707 L20.484489,17.6805828 L20.4788156,17.6894225 L20.5763986,17.5590364 L20.582072,17.5524066 C21.9391566,15.7314204 22.7379756,13.4872316 22.7368409,11.0684581 C22.7357062,4.95577863 17.6477738,0.00110496736 11.365017,0 L11.365017,1.1071773 L11.365017,2.2143546 C13.8828854,2.21545957 16.1499882,3.20440536 17.7998218,4.807713 C19.4473859,6.41433555 20.4617953,8.61985041 20.46293,11.0684581 C20.4617953,13.0132006 19.8275058,14.7921981 18.7404765,16.252965 L18.7450153,16.2474401 L18.6474323,16.3767213 L18.6406241,16.385561 L11.3638823,26.2153507 L4.09621796,16.386666 L4.08827516,16.3745114 L3.98955747,16.2441252 L3.9952309,16.252965 C2.90820163,14.7921981 2.27391211,13.0132006 2.27277743,11.0684581 C2.27391211,8.61985041 3.28945616,6.41433555 4.93702035,4.807713 C6.58571922,3.20330039 8.85055264,2.21545957 11.365017,2.2143546 L11.365017,1.1071773 Z" id="Marker"></path>
            </g>
        </g>
    </g>
</svg>