<?xml version="1.0" encoding="UTF-8" standalone="no"?>
<svg width="19px" height="29px" viewBox="0 0 19 29" version="1.1" xmlns="http://www.w3.org/2000/svg" xmlns:xlink="http://www.w3.org/1999/xlink">
    <!-- Generator: Sketch 42 (36781) - http://www.bohemiancoding.com/sketch -->
    <title>Phone</title>
    <desc>Created with Sketch.</desc>
    <defs>
        <polygon id="path-1" points="17.4903809 14.156903 17.4903809 0.46975756 0 0.46975756 0 14.156903 0 27.8440485 17.4903809 27.8440485 17.4903809 14.156903"></polygon>
    </defs>
    <g id="About-b8ta-Page" stroke="none" stroke-width="1" fill="none" fill-rule="evenodd">
        <g id="SmartSpace_desktop" transform="translate(-570.000000, -2350.000000)">
            <g id="Group-8" transform="translate(567.000000, 2203.000000)">
                <g id="Page-1" transform="translate(3.789474, 147.084507)">
                    <g id="Phone" transform="translate(0.000000, 0.428081)">
                        <mask id="mask-2" fill="white">
                            <use xlink:href="#path-1"></use>
                        </mask>
                        <g id="Clip-4"></g>
                        <path d="M15.4870813,19.1261386 L2.00329952,19.1261386 L2.00329952,3.39599686 C2.00329952,2.87234742 2.4369378,2.44570337 2.96805359,2.44570337 L14.5223273,2.44570337 C15.0534431,2.44570337 15.4870813,2.87234742 15.4870813,3.39599686 L15.4870813,19.1261386 Z M15.4870813,24.9177194 C15.4870813,25.4413689 15.0534431,25.8689111 14.5223273,25.8689111 L2.96805359,25.8689111 C2.4369378,25.8689111 2.00329952,25.4413689 2.00329952,24.9177194 L2.00329952,21.1012761 L15.4870813,21.1012761 L15.4870813,24.9177194 Z M14.5223273,0.46966774 L2.96805359,0.46966774 C1.33097799,0.46966774 0,1.78193504 0,3.39599686 L0,24.9177194 C0,26.5317812 1.33097799,27.8440485 2.96805359,27.8440485 L14.5223273,27.8440485 C16.1594029,27.8440485 17.4903809,26.5317812 17.4903809,24.9177194 L17.4903809,3.39599686 C17.4903809,1.78193504 16.1594029,0.46966774 14.5223273,0.46966774 L14.5223273,0.46966774 Z" id="Fill-3" fill="#00AAE7" mask="url(#mask-2)"></path>
                    </g>
                </g>
            </g>
        </g>
    </g>
</svg>